<mxfile host="app.diagrams.net" modified="2021-02-25T16:22:49.878Z" agent="5.0 (Windows NT 10.0; Win64; x64) AppleWebKit/537.36 (KHTML, like Gecko) Chrome/88.0.4324.190 Safari/537.36" etag="hAj_w8oailY3U1slPobR" version="14.4.3" type="github">
  <diagram id="prtHgNgQTEPvFCAcTncT" name="Page-1">
    <mxGraphModel dx="2012" dy="614" grid="1" gridSize="10" guides="1" tooltips="1" connect="1" arrows="1" fold="1" page="1" pageScale="1" pageWidth="827" pageHeight="1169" math="0" shadow="0">
      <root>
        <mxCell id="0" />
        <mxCell id="1" parent="0" />
        <mxCell id="nbLtDnBYHdvGBGEn6Fkl-6" style="edgeStyle=orthogonalEdgeStyle;rounded=0;orthogonalLoop=1;jettySize=auto;html=1;" edge="1" parent="1" source="nbLtDnBYHdvGBGEn6Fkl-1" target="nbLtDnBYHdvGBGEn6Fkl-5">
          <mxGeometry relative="1" as="geometry" />
        </mxCell>
        <mxCell id="nbLtDnBYHdvGBGEn6Fkl-1" value="HTML-page/web-server" style="rounded=0;whiteSpace=wrap;html=1;" vertex="1" parent="1">
          <mxGeometry x="110" y="255" width="100" height="50" as="geometry" />
        </mxCell>
        <mxCell id="nbLtDnBYHdvGBGEn6Fkl-4" style="edgeStyle=orthogonalEdgeStyle;rounded=0;orthogonalLoop=1;jettySize=auto;html=1;entryX=0.5;entryY=0;entryDx=0;entryDy=0;" edge="1" parent="1" source="nbLtDnBYHdvGBGEn6Fkl-2" target="nbLtDnBYHdvGBGEn6Fkl-1">
          <mxGeometry relative="1" as="geometry">
            <mxPoint x="50" y="280" as="targetPoint" />
            <Array as="points">
              <mxPoint x="-25" y="210" />
              <mxPoint x="160" y="210" />
            </Array>
          </mxGeometry>
        </mxCell>
        <mxCell id="nbLtDnBYHdvGBGEn6Fkl-16" value="New parameters" style="edgeLabel;html=1;align=center;verticalAlign=middle;resizable=0;points=[];" vertex="1" connectable="0" parent="nbLtDnBYHdvGBGEn6Fkl-4">
          <mxGeometry x="-0.4451" y="-4" relative="1" as="geometry">
            <mxPoint as="offset" />
          </mxGeometry>
        </mxCell>
        <mxCell id="nbLtDnBYHdvGBGEn6Fkl-2" value="Customer" style="shape=umlActor;verticalLabelPosition=bottom;verticalAlign=top;html=1;outlineConnect=0;" vertex="1" parent="1">
          <mxGeometry x="-40" y="250" width="30" height="60" as="geometry" />
        </mxCell>
        <mxCell id="nbLtDnBYHdvGBGEn6Fkl-8" style="edgeStyle=orthogonalEdgeStyle;rounded=0;orthogonalLoop=1;jettySize=auto;html=1;entryX=0;entryY=0.5;entryDx=0;entryDy=0;" edge="1" parent="1" source="nbLtDnBYHdvGBGEn6Fkl-5" target="nbLtDnBYHdvGBGEn6Fkl-7">
          <mxGeometry relative="1" as="geometry" />
        </mxCell>
        <mxCell id="nbLtDnBYHdvGBGEn6Fkl-5" value="clientserver.py" style="rounded=0;whiteSpace=wrap;html=1;" vertex="1" parent="1">
          <mxGeometry x="280" y="255" width="100" height="50" as="geometry" />
        </mxCell>
        <mxCell id="nbLtDnBYHdvGBGEn6Fkl-10" style="edgeStyle=orthogonalEdgeStyle;rounded=0;orthogonalLoop=1;jettySize=auto;html=1;" edge="1" parent="1" source="nbLtDnBYHdvGBGEn6Fkl-7" target="nbLtDnBYHdvGBGEn6Fkl-9">
          <mxGeometry relative="1" as="geometry" />
        </mxCell>
        <mxCell id="nbLtDnBYHdvGBGEn6Fkl-7" value="my_chair_final_template.dfa" style="rounded=0;whiteSpace=wrap;html=1;" vertex="1" parent="1">
          <mxGeometry x="480" y="200" width="170" height="45" as="geometry" />
        </mxCell>
        <mxCell id="nbLtDnBYHdvGBGEn6Fkl-12" style="edgeStyle=orthogonalEdgeStyle;rounded=0;orthogonalLoop=1;jettySize=auto;html=1;" edge="1" parent="1" source="nbLtDnBYHdvGBGEn6Fkl-9" target="nbLtDnBYHdvGBGEn6Fkl-11">
          <mxGeometry relative="1" as="geometry" />
        </mxCell>
        <mxCell id="nbLtDnBYHdvGBGEn6Fkl-9" value="my_chair.dfa" style="rounded=0;whiteSpace=wrap;html=1;" vertex="1" parent="1">
          <mxGeometry x="505" y="280" width="120" height="60" as="geometry" />
        </mxCell>
        <mxCell id="nbLtDnBYHdvGBGEn6Fkl-17" style="edgeStyle=orthogonalEdgeStyle;rounded=0;orthogonalLoop=1;jettySize=auto;html=1;entryX=0.5;entryY=0.5;entryDx=0;entryDy=0;entryPerimeter=0;" edge="1" parent="1" source="nbLtDnBYHdvGBGEn6Fkl-11" target="nbLtDnBYHdvGBGEn6Fkl-2">
          <mxGeometry relative="1" as="geometry">
            <mxPoint x="50" y="330" as="targetPoint" />
            <Array as="points">
              <mxPoint x="750" y="390" />
              <mxPoint x="370" y="390" />
              <mxPoint x="370" y="360" />
              <mxPoint x="-20" y="360" />
              <mxPoint x="-20" y="305" />
              <mxPoint x="-25" y="305" />
            </Array>
          </mxGeometry>
        </mxCell>
        <mxCell id="nbLtDnBYHdvGBGEn6Fkl-18" value="Design feedback through picture on html page" style="edgeLabel;html=1;align=center;verticalAlign=middle;resizable=0;points=[];" vertex="1" connectable="0" parent="nbLtDnBYHdvGBGEn6Fkl-17">
          <mxGeometry x="0.2728" relative="1" as="geometry">
            <mxPoint as="offset" />
          </mxGeometry>
        </mxCell>
        <mxCell id="nbLtDnBYHdvGBGEn6Fkl-11" value="NX model" style="rounded=0;whiteSpace=wrap;html=1;" vertex="1" parent="1">
          <mxGeometry x="690" y="280" width="120" height="60" as="geometry" />
        </mxCell>
        <mxCell id="nbLtDnBYHdvGBGEn6Fkl-19" value="" style="endArrow=classic;html=1;entryX=0.25;entryY=1;entryDx=0;entryDy=0;" edge="1" parent="1" target="nbLtDnBYHdvGBGEn6Fkl-1">
          <mxGeometry width="50" height="50" relative="1" as="geometry">
            <mxPoint x="140" y="360" as="sourcePoint" />
            <mxPoint x="410" y="260" as="targetPoint" />
          </mxGeometry>
        </mxCell>
      </root>
    </mxGraphModel>
  </diagram>
</mxfile>
